<svg width="127" height="36" viewBox="0 0 127 36" fill="none" xmlns="http://www.w3.org/2000/svg">
<path d="M12.68 26.4H14.84C17.4 26.4 19.3867 25.76 20.8 24.48C22.24 23.2 23.6133 20.9733 24.92 17.8C25.0533 17.48 25.2133 17.32 25.4 17.32C25.56 17.32 25.6533 17.3333 25.68 17.36L23.52 27.48C22.5067 27.16 20.36 27 17.08 27H0.88V26.76C0.88 26.6 1.02667 26.4933 1.32 26.44C1.64 26.36 2.01333 26.28 2.44 26.2C2.86667 26.12 3.29333 25.9867 3.72 25.8C4.14667 25.5867 4.50667 25.1867 4.8 24.6C5.12 24.0133 5.28 23.2667 5.28 22.36V3.92C5.28 3.04 5.05333 2.36 4.6 1.88C4.17333 1.37333 3.68 1.08 3.12 0.999999C2.58667 0.919998 2.09333 0.826665 1.64 0.72C1.21333 0.613333 1 0.466666 1 0.279998V0.0799985H13.56V0.279998C13.56 0.466666 13.32 0.613333 12.84 0.72C12.3867 0.826665 11.88 0.933331 11.32 1.04C10.76 1.12 10.24 1.41333 9.76 1.92C9.30667 2.4 9.08 3.06667 9.08 3.92C9.08 5.33333 9.06667 8.50667 9.04 13.44C9.04 18.3733 9.04 21.56 9.04 23C9.04 25.2667 10.2533 26.4 12.68 26.4ZM44.1122 9.08L44.2722 9.24V23.52C44.2722 24.2933 44.4322 24.88 44.7522 25.28C45.0722 25.68 45.4189 25.9067 45.7922 25.96C46.1922 25.9867 46.5522 26.04 46.8722 26.12C47.1922 26.1733 47.3522 26.2933 47.3522 26.48V26.72L41.1122 27.4L40.9522 27.24L41.0722 24.76H40.9122C39.4722 26.5467 37.6989 27.44 35.5922 27.44C34.0455 27.44 32.7522 27.0267 31.7122 26.2C30.6722 25.3467 30.1522 23.9867 30.1522 22.12V12.96C30.1522 12.1867 29.9922 11.6 29.6722 11.2C29.3789 10.8 29.0455 10.5867 28.6722 10.56C28.2989 10.5067 27.9522 10.4533 27.6322 10.4C27.3389 10.32 27.1922 10.1867 27.1922 10V9.76L33.3122 9.08L33.4722 9.24V22.92C33.4722 24.12 33.7522 25.04 34.3122 25.68C34.8722 26.32 35.6455 26.64 36.6322 26.64C38.3922 26.64 39.8322 25.6667 40.9522 23.72V12.96C40.9522 12.1867 40.7922 11.6 40.4722 11.2C40.1789 10.8 39.8455 10.5867 39.4722 10.56C39.0989 10.5067 38.7522 10.4533 38.4322 10.4C38.1389 10.32 37.9922 10.1867 37.9922 10V9.76L44.1122 9.08ZM57.135 19.04L52.495 12.4C52.095 11.84 51.6817 11.4 51.255 11.08C50.8283 10.7333 50.4683 10.52 50.175 10.44C49.9083 10.36 49.6817 10.2667 49.495 10.16C49.3083 10.0533 49.215 9.90667 49.215 9.72V9.56H58.295V9.76C58.295 9.89333 58.2283 10 58.095 10.08C57.9883 10.1333 57.7883 10.1867 57.495 10.24C57.2017 10.2933 56.9883 10.3467 56.855 10.4C56.2417 10.5867 55.935 10.9333 55.935 11.44C55.935 11.8933 56.1883 12.4533 56.695 13.12L59.255 16.8L61.775 13.64C62.3083 12.92 62.575 12.3067 62.575 11.8C62.575 11.0267 62.0817 10.5467 61.095 10.36C60.9617 10.3333 60.7883 10.3067 60.575 10.28C60.3883 10.2533 60.255 10.2267 60.175 10.2C60.095 10.1733 60.0017 10.1467 59.895 10.12C59.7883 10.0667 59.7217 10.0133 59.695 9.96C59.6683 9.90667 59.655 9.82667 59.655 9.72V9.56H67.895V9.72C67.895 9.93333 67.6817 10.0933 67.255 10.2C66.855 10.28 66.2283 10.5333 65.375 10.96C64.5483 11.3867 63.7483 12.08 62.975 13.04L59.575 17.24L64.255 23.84C64.895 24.7467 65.575 25.3867 66.295 25.76C67.015 26.1333 67.5483 26.36 67.895 26.44C68.2683 26.4933 68.455 26.6267 68.455 26.84V27H58.575V26.8C58.575 26.6667 58.6283 26.5733 58.735 26.52C58.8683 26.44 59.0817 26.3733 59.375 26.32C59.6683 26.2667 59.895 26.2133 60.055 26.16C60.6683 25.9733 60.975 25.6267 60.975 25.12C60.975 24.6667 60.7217 24.1067 60.215 23.44L57.455 19.52L54.655 22.92C54.1217 23.5333 53.855 24.1333 53.855 24.72C53.855 25.52 54.3483 26.0133 55.335 26.2C55.4683 26.2267 55.6417 26.2667 55.855 26.32C56.0683 26.3467 56.215 26.3733 56.295 26.4C56.4017 26.4 56.5083 26.4267 56.615 26.48C56.7483 26.5067 56.8283 26.56 56.855 26.64C56.9083 26.6933 56.935 26.76 56.935 26.84V27H48.775V26.84C48.775 26.6267 48.9617 26.4667 49.335 26.36C49.735 26.2533 50.335 25.9867 51.135 25.56C51.935 25.1067 52.7083 24.4267 53.455 23.52L57.135 19.04ZM86.6903 9.08L86.8503 9.24V23.52C86.8503 24.2933 87.0103 24.88 87.3303 25.28C87.6503 25.68 87.997 25.9067 88.3703 25.96C88.7703 25.9867 89.1303 26.04 89.4503 26.12C89.7703 26.1733 89.9303 26.2933 89.9303 26.48V26.72L83.6903 27.4L83.5303 27.24L83.6503 24.76H83.4903C82.0503 26.5467 80.277 27.44 78.1703 27.44C76.6236 27.44 75.3303 27.0267 74.2903 26.2C73.2503 25.3467 72.7303 23.9867 72.7303 22.12V12.96C72.7303 12.1867 72.5703 11.6 72.2503 11.2C71.957 10.8 71.6236 10.5867 71.2503 10.56C70.877 10.5067 70.5303 10.4533 70.2103 10.4C69.917 10.32 69.7703 10.1867 69.7703 10V9.76L75.8903 9.08L76.0503 9.24V22.92C76.0503 24.12 76.3303 25.04 76.8903 25.68C77.4503 26.32 78.2236 26.64 79.2103 26.64C80.9703 26.64 82.4103 25.6667 83.5303 23.72V12.96C83.5303 12.1867 83.3703 11.6 83.0503 11.2C82.757 10.8 82.4236 10.5867 82.0503 10.56C81.677 10.5067 81.3303 10.4533 81.0103 10.4C80.717 10.32 80.5703 10.1867 80.5703 10V9.76L86.6903 9.08ZM95.5931 23.8V12.76C95.5931 12.04 95.4198 11.4933 95.0731 11.12C94.7531 10.72 94.3798 10.5067 93.9531 10.48C93.5531 10.4267 93.1798 10.36 92.8331 10.28C92.5131 10.2 92.3531 10.0667 92.3531 9.88V9.68L98.4731 9.08L98.6331 9.24L98.3931 13.04L98.5531 13.08C100.02 10.4133 101.766 9.08 103.793 9.08C104.486 9.08 105.086 9.26667 105.593 9.64C106.126 10.0133 106.393 10.52 106.393 11.16C106.393 11.72 106.22 12.1733 105.873 12.52C105.526 12.84 105.086 13 104.553 13C103.913 13 103.326 12.7467 102.793 12.24C102.286 11.7067 102.033 11.04 102.033 10.24C100.86 10.56 99.8198 11.6667 98.9131 13.56V24C98.9131 24.6933 99.0998 25.2267 99.4731 25.6C99.8465 25.9467 100.26 26.1467 100.713 26.2C101.166 26.2267 101.58 26.28 101.953 26.36C102.326 26.44 102.513 26.5733 102.513 26.76V27H92.4731V26.76C92.4731 26.5733 92.7265 26.4667 93.2331 26.44C93.7665 26.3867 94.2865 26.1867 94.7931 25.84C95.3265 25.4667 95.5931 24.7867 95.5931 23.8ZM109.658 36C108.885 36 108.258 35.8267 107.778 35.48C107.298 35.1333 107.058 34.6533 107.058 34.04C107.058 33.48 107.245 33.04 107.618 32.72C107.991 32.4 108.431 32.24 108.938 32.24C109.685 32.24 110.311 32.4933 110.818 33C111.325 33.5067 111.658 34.1333 111.818 34.88C112.591 34.5867 113.365 33.9067 114.138 32.84C114.938 31.8 115.618 30.48 116.178 28.88L116.658 27.48H116.178L110.178 12.96C109.858 12.24 109.485 11.6667 109.058 11.24C108.631 10.8133 108.245 10.56 107.898 10.48C107.578 10.4 107.298 10.32 107.058 10.24C106.818 10.16 106.698 10.0267 106.698 9.84V9.56H116.258V9.84C116.258 10 116.111 10.12 115.818 10.2C115.525 10.28 115.191 10.3467 114.818 10.4C114.471 10.4267 114.151 10.56 113.858 10.8C113.565 11.04 113.418 11.3733 113.418 11.8C113.418 12.0933 113.511 12.5067 113.698 13.04L117.978 23.68H118.098L121.618 13.76C121.858 13.12 121.978 12.5333 121.978 12C121.978 11.36 121.738 10.92 121.258 10.68C120.778 10.4133 120.298 10.24 119.818 10.16C119.338 10.08 119.098 9.96 119.098 9.8V9.56H126.938V9.8C126.938 9.96 126.765 10.08 126.418 10.16C126.071 10.2133 125.658 10.2933 125.178 10.4C124.725 10.48 124.218 10.8 123.658 11.36C123.098 11.92 122.645 12.6933 122.298 13.68L116.778 28.92C115.071 33.64 112.698 36 109.658 36Z" fill="#B4B7B7"/>
</svg>
