<svg width="398" height="61" viewBox="0 0 398 61" fill="none" xmlns="http://www.w3.org/2000/svg">
<path d="M19.36 6.44V32.12H22.64C26.9067 32.12 30.24 30.9467 32.64 28.6C35.0933 26.2 36.32 23.1067 36.32 19.32C36.32 15.3733 35.04 12.2533 32.48 9.96C29.9733 7.61333 26.72 6.44 22.72 6.44H19.36ZM21.2 33.4H19.36V50.52C19.36 52.4933 19.7867 54.04 20.64 55.16C21.5467 56.28 22.5067 56.9467 23.52 57.16C24.5867 57.32 25.5467 57.5067 26.4 57.72C27.3067 57.9333 27.76 58.2267 27.76 58.6V59H0.96V58.6C0.96 58.1733 1.38667 57.8533 2.24 57.64C3.09333 57.4267 4.02667 57.2133 5.04 57C6.10667 56.7867 7.06667 56.0667 7.92 54.84C8.77333 53.56 9.2 51.8 9.2 49.56V12.76C9.2 11.0533 8.77333 9.72 7.92 8.76C7.06667 7.8 6.13333 7.24 5.12 7.08C4.10667 6.92 3.17333 6.76 2.32 6.6C1.46667 6.38666 1.04 6.06666 1.04 5.64V5.08H24.32C31.52 5.08 37.12 6.22666 41.12 8.52C45.1733 10.8133 47.2 14.36 47.2 19.16C47.2 23.32 45.2533 26.76 41.36 29.48C37.52 32.2 32.08 33.56 25.04 33.56C24.8267 33.56 24.4267 33.56 23.84 33.56C23.2533 33.5067 22.88 33.48 22.72 33.48C24.96 36.1467 29.1733 37.4267 35.36 37.32L45.68 51.96C47.1733 54.04 48.7733 55.5067 50.48 56.36C52.1867 57.16 53.4933 57.64 54.4 57.8C55.3067 57.9067 55.76 58.2 55.76 58.68V59H39.36L21.2 33.4ZM90.3713 39.32L89.6513 39.96H64.8513C64.8513 45.72 65.8113 50.0667 67.7313 53C69.7046 55.88 72.8513 57.32 77.1713 57.32C81.3313 57.32 85.2246 55.8533 88.8513 52.92L89.4913 53.56C85.7046 57.7733 80.7446 59.88 74.6113 59.88C68.5313 59.88 63.7846 58.2 60.3713 54.84C56.9579 51.4267 55.2513 47 55.2513 41.56C55.2513 36.28 56.9579 31.88 60.3713 28.36C63.7846 24.84 68.2913 23.08 73.8913 23.08C79.0113 23.08 83.0379 24.68 85.9713 27.88C88.9046 31.08 90.3713 34.8933 90.3713 39.32ZM73.6512 24.2C71.1446 24.2 69.1179 25.56 67.5713 28.28C66.0779 30.9467 65.1979 34.44 64.9313 38.76L81.2513 38.2V36.28C81.2513 34.4133 81.0379 32.6267 80.6113 30.92C80.1846 29.16 79.3579 27.6133 78.1313 26.28C76.9579 24.8933 75.4646 24.2 73.6512 24.2ZM112.448 23.08C122.154 23.08 127.008 27.5867 127.008 36.6V52.44C127.008 54.4667 127.274 55.8 127.808 56.44C128.341 57.0267 129.568 57.3467 131.488 57.4C131.488 57.4533 131.488 57.6133 131.488 57.88C131.541 58.1467 131.568 58.3067 131.568 58.36C129.541 59.3733 127.328 59.88 124.928 59.88C120.768 59.88 118.554 58.12 118.288 54.6H117.968C114.608 58.1733 110.261 59.96 104.928 59.96C102.154 59.96 99.8075 59.2133 97.8875 57.72C96.0208 56.2267 95.0875 54.0933 95.0875 51.32C95.0875 48.3333 96.0742 45.8533 98.0475 43.88C100.021 41.9067 102.314 40.5733 104.928 39.88C107.594 39.1867 110.528 38.84 113.728 38.84C115.274 38.84 116.714 38.92 118.048 39.08V33.88C118.048 27.5333 115.648 24.36 110.848 24.36C108.341 24.36 106.234 24.9733 104.528 26.2C106.074 27.4267 106.848 29.1333 106.848 31.32C106.848 32.7067 106.394 33.88 105.488 34.84C104.581 35.8 103.354 36.28 101.808 36.28C100.634 36.28 99.7008 35.9067 99.0075 35.16C98.3142 34.4133 97.9675 33.48 97.9675 32.36C97.9675 30.1733 99.1408 28.0933 101.488 26.12C103.888 24.0933 107.541 23.08 112.448 23.08ZM109.728 57.32C111.328 57.32 112.874 56.92 114.368 56.12C115.861 55.2667 117.088 54.2 118.048 52.92V40.28C117.194 40.1733 116.448 40.12 115.808 40.12C111.861 40.12 108.954 41.0267 107.088 42.84C105.274 44.6 104.368 46.9467 104.368 49.88C104.368 52.2267 104.821 54.0667 105.728 55.4C106.688 56.68 108.021 57.32 109.728 57.32ZM140.998 52.52V8.52C140.998 6.6 140.491 5.29333 139.478 4.6C138.518 3.90667 137.531 3.50666 136.518 3.4C135.505 3.29333 134.998 3.02666 134.998 2.6V2.04L149.638 0.359997L150.038 0.679997V52.92C150.038 54.3067 150.358 55.3733 150.998 56.12C151.691 56.8133 152.438 57.2133 153.238 57.32C154.038 57.4267 154.758 57.56 155.398 57.72C156.091 57.88 156.438 58.1467 156.438 58.52V59H135.078V58.52C135.078 58.1467 135.371 57.88 135.958 57.72C136.598 57.56 137.291 57.4267 138.038 57.32C138.785 57.2133 139.451 56.76 140.038 55.96C140.678 55.16 140.998 54.0133 140.998 52.52ZM206.471 57.72H210.471C215.217 57.72 219.084 56.3867 222.071 53.72C225.111 51.0533 227.884 46.6267 230.391 40.44C230.711 39.5333 231.137 39.08 231.671 39.08C231.724 39.08 231.804 39.1067 231.911 39.16C232.017 39.16 232.097 39.16 232.151 39.16L227.591 60.52C223.431 59.5067 217.857 59 210.871 59H181.031V58.52C181.031 58.1467 181.457 57.8533 182.311 57.64C183.164 57.4267 184.097 57.24 185.111 57.08C186.177 56.8667 187.137 56.2 187.991 55.08C188.844 53.9067 189.271 52.28 189.271 50.2V13.08C189.271 11.2667 188.844 9.85333 187.991 8.84C187.137 7.82666 186.177 7.24 185.111 7.08C184.097 6.92 183.164 6.76 182.311 6.6C181.457 6.38666 181.031 6.06666 181.031 5.64V5.08H209.671C216.657 5.08 221.911 4.36 225.431 2.92L227.591 21.4C227.537 21.4 227.431 21.4 227.271 21.4L227.031 21.48C226.764 21.48 226.524 21.3733 226.311 21.16C226.151 20.8933 225.937 20.4667 225.671 19.88C225.404 19.24 225.271 18.8933 225.271 18.84C223.564 14.1467 221.511 10.92 219.111 9.16C216.711 7.34667 213.271 6.44 208.791 6.44H199.511V30.12H206.791C208.977 30.12 210.711 29.6133 211.991 28.6C213.324 27.5333 214.151 26.3867 214.471 25.16C214.791 23.88 215.084 22.7333 215.351 21.72C215.671 20.6533 216.044 20.12 216.471 20.12H216.871V42.12H216.471C215.991 42.12 215.591 41.56 215.271 40.44C215.004 39.32 214.764 38.12 214.551 36.84C214.337 35.5067 213.591 34.28 212.311 33.16C211.084 32.04 209.377 31.48 207.191 31.48H199.511V51.16C199.511 55.5333 201.831 57.72 206.471 57.72ZM236.993 33.56C236.993 30.36 238.246 27.8 240.753 25.88C243.313 23.96 246.699 23 250.913 23C254.646 23 257.659 23.6667 259.953 25C262.299 26.28 263.473 28.0133 263.473 30.2C263.419 31.3733 263.019 32.3067 262.273 33C261.579 33.64 260.753 33.96 259.793 33.96C258.513 33.96 257.446 33.5333 256.593 32.68C255.739 31.7733 255.313 30.6267 255.313 29.24C255.313 27.6933 255.606 26.2533 256.193 24.92C254.913 24.44 253.553 24.2 252.113 24.2C250.299 24.2 248.673 24.7333 247.233 25.8C245.793 26.8667 245.072 28.52 245.072 30.76C245.072 32.1467 245.766 33.3733 247.153 34.44C248.593 35.5067 250.299 36.4667 252.273 37.32C254.246 38.12 256.219 39 258.193 39.96C260.219 40.92 261.926 42.2 263.313 43.8C264.753 45.4 265.473 47.2667 265.473 49.4C265.473 52.8133 263.926 55.4267 260.833 57.24C257.793 59.0533 254.059 59.96 249.633 59.96C245.526 59.96 242.166 59.2667 239.553 57.88C236.993 56.4933 235.713 54.7067 235.713 52.52C235.713 51.2933 236.086 50.3333 236.833 49.64C237.633 48.9467 238.566 48.6 239.633 48.6C241.073 48.6 242.219 49.08 243.073 50.04C243.979 50.9467 244.433 52.1467 244.433 53.64C244.433 55.3467 244.059 56.76 243.312 57.88C244.753 58.52 246.566 58.84 248.753 58.84C250.939 58.84 252.833 58.2 254.432 56.92C256.086 55.64 256.913 53.8267 256.913 51.48C256.913 49.6667 255.873 48.0667 253.793 46.68C251.713 45.24 249.419 44.0933 246.913 43.24C244.459 42.3867 242.193 41.1333 240.113 39.48C238.033 37.8267 236.993 35.8533 236.993 33.56ZM294.086 56.52C290.619 58.76 286.939 59.88 283.046 59.88C279.526 59.88 277.126 59.1333 275.846 57.64C274.566 56.1467 273.926 53.96 273.926 51.08V25.4H268.886V24.2L274.006 23.96C275.872 23.2133 277.526 21.7467 278.966 19.56C280.406 17.32 281.339 15.0533 281.766 12.76H282.886V24.12H293.286V25.4H282.886V51.16C282.886 53.24 283.232 54.7867 283.926 55.8C284.619 56.8133 285.792 57.32 287.446 57.32C289.312 57.32 291.392 56.76 293.686 55.64L294.086 56.52ZM313.541 23.08C323.248 23.08 328.101 27.5867 328.101 36.6V52.44C328.101 54.4667 328.368 55.8 328.901 56.44C329.435 57.0267 330.661 57.3467 332.581 57.4C332.581 57.4533 332.581 57.6133 332.581 57.88C332.635 58.1467 332.661 58.3067 332.661 58.36C330.635 59.3733 328.421 59.88 326.021 59.88C321.861 59.88 319.648 58.12 319.381 54.6H319.061C315.701 58.1733 311.355 59.96 306.021 59.96C303.248 59.96 300.901 59.2133 298.981 57.72C297.115 56.2267 296.181 54.0933 296.181 51.32C296.181 48.3333 297.168 45.8533 299.141 43.88C301.115 41.9067 303.408 40.5733 306.021 39.88C308.688 39.1867 311.621 38.84 314.821 38.84C316.368 38.84 317.808 38.92 319.141 39.08V33.88C319.141 27.5333 316.741 24.36 311.941 24.36C309.435 24.36 307.328 24.9733 305.621 26.2C307.168 27.4267 307.941 29.1333 307.941 31.32C307.941 32.7067 307.488 33.88 306.581 34.84C305.675 35.8 304.448 36.28 302.901 36.28C301.728 36.28 300.795 35.9067 300.101 35.16C299.408 34.4133 299.061 33.48 299.061 32.36C299.061 30.1733 300.235 28.0933 302.581 26.12C304.981 24.0933 308.635 23.08 313.541 23.08ZM310.821 57.32C312.421 57.32 313.968 56.92 315.461 56.12C316.955 55.2667 318.181 54.2 319.141 52.92V40.28C318.288 40.1733 317.541 40.12 316.901 40.12C312.955 40.12 310.048 41.0267 308.181 42.84C306.368 44.6 305.461 46.9467 305.461 49.88C305.461 52.2267 305.915 54.0667 306.821 55.4C307.781 56.68 309.115 57.32 310.821 57.32ZM360.492 56.52C357.025 58.76 353.345 59.88 349.452 59.88C345.932 59.88 343.532 59.1333 342.252 57.64C340.972 56.1467 340.332 53.96 340.332 51.08V25.4H335.292V24.2L340.412 23.96C342.279 23.2133 343.932 21.7467 345.372 19.56C346.812 17.32 347.745 15.0533 348.172 12.76H349.292V24.12H359.692V25.4H349.292V51.16C349.292 53.24 349.639 54.7867 350.332 55.8C351.025 56.8133 352.199 57.32 353.852 57.32C355.719 57.32 357.799 56.76 360.092 55.64L360.492 56.52ZM397.246 39.32L396.526 39.96H371.726C371.726 45.72 372.686 50.0667 374.606 53C376.58 55.88 379.726 57.32 384.046 57.32C388.206 57.32 392.1 55.8533 395.726 52.92L396.366 53.56C392.58 57.7733 387.62 59.88 381.486 59.88C375.406 59.88 370.66 58.2 367.246 54.84C363.833 51.4267 362.126 47 362.126 41.56C362.126 36.28 363.833 31.88 367.246 28.36C370.66 24.84 375.166 23.08 380.766 23.08C385.886 23.08 389.913 24.68 392.846 27.88C395.78 31.08 397.246 34.8933 397.246 39.32ZM380.526 24.2C378.02 24.2 375.993 25.56 374.446 28.28C372.953 30.9467 372.073 34.44 371.806 38.76L388.126 38.2V36.28C388.126 34.4133 387.913 32.6267 387.486 30.92C387.06 29.16 386.233 27.6133 385.006 26.28C383.833 24.8933 382.34 24.2 380.526 24.2Z" fill="white"/>
</svg>
